<svg xmlns="http://www.w3.org/2000/svg" width="57.715" height="57.715" viewBox="0 0 57.715 57.715">
  <g id="Group_405" data-name="Group 405" transform="translate(-627 -803)">
    <g id="Group_400" data-name="Group 400" transform="translate(627 803)">
      <ellipse id="Ellipse_9" data-name="Ellipse 9" cx="28.858" cy="28.858" rx="28.858" ry="28.858" transform="translate(0 0)" fill="#e8f6fc"/>
      <path id="Path_267" data-name="Path 267" d="M25.086,4H4.565A2.562,2.562,0,0,0,2.013,6.565L2,21.956a2.573,2.573,0,0,0,2.565,2.565H25.086a2.573,2.573,0,0,0,2.565-2.565V6.565A2.573,2.573,0,0,0,25.086,4Zm0,5.13L14.826,15.543,4.565,9.13V6.565l10.26,6.413L25.086,6.565Z" transform="translate(14.429 14.073)" fill="#25a8e0"/>
      <path id="Path_268" data-name="Path 268" d="M0,0H30.781V30.781H0Z" transform="translate(13.964 13.144)" fill="none"/>
    </g>
  </g>
</svg>
