<svg xmlns="http://www.w3.org/2000/svg" width="173.268" height="46.916" viewBox="0 0 173.268 46.916">
  <g id="Group_62" data-name="Group 62" transform="translate(-374.567 703.644)">
    <path id="Path_24" data-name="Path 24" d="M379.034-430.344a1.6,1.6,0,0,0-.52-1.382,1.456,1.456,0,0,0,.609-1.331c-.006-1.088-.708-1.616-1.925-1.616h-2.631v5.749h1.113v-2.3H377c.442,0,.669.095.77.214a1.229,1.229,0,0,1,.155.747,3.057,3.057,0,0,0,.177,1.225l.054.113h1.264l-.2-.307A2.2,2.2,0,0,1,379.034-430.344ZM376.98-432.2l-1.3,0v-1.472h1.4a1.266,1.266,0,0,1,.716.15.643.643,0,0,1,.217.569C378.014-432.474,377.745-432.2,376.98-432.2Zm19.847-2.473-2.225,5.749h1.2l.555-1.618h1.982l.585,1.618h1.2l-2.217-5.749Zm-.139,3.131c.126-.284.336-.8.684-1.722l.608,1.722Zm10.113-3.131h-1.113v5.749h3.956v-1H406.8Zm-20.779,3.3h2.79v-1h-2.79v-1.3h2.986v-1h-4.1v5.749h4.129v-1h-3.015Zm46.357-3.434a2.614,2.614,0,0,0-1.943.787,3.041,3.041,0,0,0-.822,2.222,3.01,3.01,0,0,0,.838,2.223,2.612,2.612,0,0,0,1.927.785,2.628,2.628,0,0,0,1.991-.824,3.05,3.05,0,0,0,.775-2.185,3.077,3.077,0,0,0-.783-2.2A2.623,2.623,0,0,0,432.379-434.807Zm1.138,4.549a1.5,1.5,0,0,1-1.138.47,1.505,1.505,0,0,1-1.159-.475,2.157,2.157,0,0,1-.5-1.534,2.092,2.092,0,0,1,.544-1.531,1.493,1.493,0,0,1,1.116-.478,1.5,1.5,0,0,1,1.138.469,2.124,2.124,0,0,1,.522,1.54A2.122,2.122,0,0,1,433.517-430.258Zm46.729.05a1.6,1.6,0,0,0-.518-1.381,1.463,1.463,0,0,0,.609-1.333c-.006-1.088-.708-1.614-1.926-1.614h-2.63v5.748h1.113v-2.3h1.315c.443,0,.67.1.77.213a1.239,1.239,0,0,1,.155.748,3.08,3.08,0,0,0,.176,1.225l.055.114h1.264l-.2-.308A2.216,2.216,0,0,1,480.246-430.208Zm-2.052-1.857h-1.3v-1.473h1.4a1.251,1.251,0,0,1,.716.15.64.64,0,0,1,.217.568C479.228-432.338,478.959-432.065,478.194-432.065Zm7.294.827h2.79v-1h-2.79v-1.3h2.986v-1h-4.1v5.748H488.5v-1h-3.015Zm-16.821-3.3-2.226,5.748h1.2l.555-1.617h1.982l.585,1.617h1.2l-2.217-5.748Zm-.14,3.131c.125-.284.335-.8.683-1.723l.608,1.723Zm-7.912.745-1.024-3.876-.91,0c-.1-.023-.2.121-1.205,3.864l-.911-3.866h-1.144l1.467,5.748h.9c.1.024.2-.12,1.253-3.955l1.056,3.956h1.066l1.516-5.748-.942,0C461.642-434.557,461.541-434.412,460.615-430.661Zm-13.731-2.877h1.785v4.749h1.113v-4.749h1.785v-1h-4.684Zm-7.829,4.749h1.113v-2.449h2.483v-1h-2.483v-1.3h2.806v-1h-3.919Zm-14.005-3.07a4.428,4.428,0,0,0-1.4-.508,9.343,9.343,0,0,1-1.108-.292.474.474,0,0,1-.27-.479.542.542,0,0,1,.257-.493,1.281,1.281,0,0,1,.725-.176c.752,0,1.09.308,1.131.929l.013.186h1.087l-.01-.21c-.061-1.271-.846-1.906-2.226-1.906a2.333,2.333,0,0,0-1.466.447,1.571,1.571,0,0,0-.625,1.3,1.289,1.289,0,0,0,.539,1.162,4.87,4.87,0,0,0,1.392.47,6.8,6.8,0,0,1,1.081.322.625.625,0,0,1,.386.6c0,.441-.286.721-1.157.721a1.534,1.534,0,0,1-.971-.271.977.977,0,0,1-.352-.824v-.2h-1.09v.2a1.986,1.986,0,0,0,.56,1.45,2.437,2.437,0,0,0,1.808.644,2.711,2.711,0,0,0,1.715-.508,1.586,1.586,0,0,0,.631-1.288A1.441,1.441,0,0,0,425.05-431.859Zm77.025-2.678-2.225,5.748h1.2l.555-1.617h1.981l.585,1.617h1.2l-2.217-5.748Zm-.14,3.131c.126-.284.336-.8.685-1.723l.607,1.723Zm19.912-.453a4.434,4.434,0,0,0-1.4-.508,9.369,9.369,0,0,1-1.108-.292.473.473,0,0,1-.27-.479.542.542,0,0,1,.257-.493,1.279,1.279,0,0,1,.724-.176c.752,0,1.09.308,1.132.929l.012.186h1.088l-.01-.21c-.062-1.271-.845-1.906-2.225-1.906a2.334,2.334,0,0,0-1.466.447,1.57,1.57,0,0,0-.625,1.3,1.289,1.289,0,0,0,.539,1.162,4.875,4.875,0,0,0,1.392.47,6.815,6.815,0,0,1,1.082.322.625.625,0,0,1,.385.6c0,.441-.287.721-1.157.721a1.532,1.532,0,0,1-.971-.271.975.975,0,0,1-.352-.824v-.2h-1.09v.2a1.986,1.986,0,0,0,.56,1.45,2.439,2.439,0,0,0,1.808.644,2.71,2.71,0,0,0,1.714-.508,1.584,1.584,0,0,0,.631-1.288A1.442,1.442,0,0,0,521.847-431.859Zm-8.611,0a4.433,4.433,0,0,0-1.4-.508,9.3,9.3,0,0,1-1.108-.292.473.473,0,0,1-.27-.479.543.543,0,0,1,.257-.493,1.28,1.28,0,0,1,.724-.176c.752,0,1.091.308,1.132.929l.012.186h1.087l-.009-.21c-.062-1.271-.846-1.906-2.227-1.906a2.334,2.334,0,0,0-1.465.447,1.57,1.57,0,0,0-.625,1.3,1.289,1.289,0,0,0,.539,1.162,4.861,4.861,0,0,0,1.392.47,6.79,6.79,0,0,1,1.081.322.624.624,0,0,1,.386.6c0,.441-.287.721-1.158.721a1.531,1.531,0,0,1-.97-.271.975.975,0,0,1-.352-.824v-.2h-1.091v.2a1.99,1.99,0,0,0,.56,1.45,2.439,2.439,0,0,0,1.808.644,2.711,2.711,0,0,0,1.715-.508,1.586,1.586,0,0,0,.63-1.288A1.441,1.441,0,0,0,513.236-431.859Zm14.274.621H530.3v-1H527.51v-1.3H530.5v-1h-4.1v5.748h4.129v-1H527.51Zm6.913-2.3h1.785v4.749h1.113v-4.749h1.785v-1h-4.684Zm12.641,1.679a4.418,4.418,0,0,0-1.4-.508,9.368,9.368,0,0,1-1.109-.292.473.473,0,0,1-.269-.479.541.541,0,0,1,.257-.493,1.277,1.277,0,0,1,.724-.176c.752,0,1.09.308,1.132.929l.012.186H547.5l-.01-.21c-.06-1.271-.845-1.906-2.225-1.906a2.329,2.329,0,0,0-1.465.447,1.57,1.57,0,0,0-.625,1.3,1.29,1.29,0,0,0,.538,1.162,4.875,4.875,0,0,0,1.392.47,6.813,6.813,0,0,1,1.082.322.626.626,0,0,1,.386.6c0,.441-.287.721-1.158.721a1.531,1.531,0,0,1-.97-.271.975.975,0,0,1-.353-.824v-.2H543v.2a1.99,1.99,0,0,0,.56,1.45,2.439,2.439,0,0,0,1.808.644,2.708,2.708,0,0,0,1.714-.508,1.584,1.584,0,0,0,.631-1.288A1.44,1.44,0,0,0,547.064-431.859Z" transform="translate(0 -227.94)" fill-rule="evenodd"/>
    <path id="Path_25" data-name="Path 25" d="M738.708-584.206v2.251a3.309,3.309,0,0,0,3.311,3.307h19.94a.764.764,0,0,1,.764.763v1.516c0,.421-.342.525-.764.525H738.708v3.544h24.009a3.308,3.308,0,0,0,3.311-3.305v-2.948a3.308,3.308,0,0,0-3.311-3.306H742.573a.764.764,0,0,1-.764-.763v-.79a.763.763,0,0,1,.764-.762h23.455v-3.336H742.019A3.309,3.309,0,0,0,738.708-584.206Zm90.739-3.315v3.144h11.911V-572.3h3.493v-12.076h11.73v-3.144Zm-30.675,3.254v8.574a3.308,3.308,0,0,0,3.31,3.305h24.531v-3.672H802.843a.763.763,0,0,1-.764-.762v-6.845a.763.763,0,0,1,.764-.763h23.771v-3.145H802.082A3.309,3.309,0,0,0,798.772-584.268Zm-29.71.062v2.251a3.309,3.309,0,0,0,3.311,3.307h19.94a.764.764,0,0,1,.764.763v1.516c0,.421-.342.525-.764.525H769.061v3.544h24.01a3.308,3.308,0,0,0,3.311-3.305v-2.948a3.309,3.309,0,0,0-3.311-3.306H772.926a.763.763,0,0,1-.764-.763v-.79a.763.763,0,0,1,.764-.762h23.455v-3.336H772.373A3.309,3.309,0,0,0,769.061-584.206Zm38.076,5.943h15.819v-3.561h-20.3Z" transform="translate(-308.746 -98.413)" fill-rule="evenodd"/>
    <path id="Path_26" data-name="Path 26" d="M386.7-676.939c.812-1.18,17.284-22.146,17.284-22.146l19.039,23.242h7.4l-21.648-27.8h-8.965L374.567-670.8h51.754v-3.5h-39.46C385.054-674.3,386.136-676.113,386.7-676.939Zm12.327-2.421h15.819l-5.342-5h-14.96Z" transform="translate(0 0)" fill-rule="evenodd"/>
  </g>
</svg>
