<svg xmlns="http://www.w3.org/2000/svg" width="56.625" height="56.615" viewBox="0 0 56.625 56.615"><defs><style>.a{fill:#fff;}</style></defs><g transform="translate(-3818.161 676.319)"><path class="a" d="M3846.492-619.7a28.258,28.258,0,0,1-28.331-28.427,28.309,28.309,0,0,1,29.062-28.181,28.261,28.261,0,0,1,27.563,28.573A28.245,28.245,0,0,1,3846.492-619.7Zm-27.031-28.159a27.175,27.175,0,0,0,27.277,27.174,27.193,27.193,0,0,0,27.033-28.466,27.2,27.2,0,0,0-26.459-25.885A27.173,27.173,0,0,0,3819.461-647.862Z" transform="translate(0)"/><path class="a" d="M3959.038-553.524a17.835,17.835,0,0,1,17.84,17.121,17.885,17.885,0,0,1-18.221,18.637,17.893,17.893,0,0,1-17.524-18.438A17.851,17.851,0,0,1,3959.038-553.524Zm-.02,9.448v-1.506c0-2.137-.01-4.273.008-6.41,0-.418-.131-.583-.542-.528-.212.028-.425.052-.638.063a15.61,15.61,0,0,0-6.38,1.726,16.775,16.775,0,0,0-7.786,8.056,17.185,17.185,0,0,0-1.545,6.478c-.021.432.113.565.554.564q7.894-.021,15.788-.009c.538,0,.541,0,.541-.561Zm8.4,8.451c-2.652,0-5.3.006-7.958-.007-.34,0-.434.1-.433.436q.015,7.957,0,15.915c0,.34.071.482.448.476a16.045,16.045,0,0,0,6.562-1.528,16.642,16.642,0,0,0,7.294-6.447,16.393,16.393,0,0,0,2.523-8.371c.01-.383-.1-.484-.48-.482C3972.724-535.618,3970.071-535.625,3967.419-535.625Z" transform="translate(-112.38 -112.224)"/><path class="a" d="M4290.7-575.289l2.36-1c.434-.184.876-.355,1.3-.562a.361.361,0,0,1,.515.126c.307.4.824.766.866,1.186.039.379-.426.82-.7,1.216-.491.722-1,1.431-1.5,2.146a.407.407,0,0,0-.073.3c.244-.1.491-.2.729-.309.944-.445,1.891-.886,2.825-1.35a.356.356,0,0,1,.516.1c.24.3.482.6.731.9.173.2.1.329-.11.431-2.007.971-4.013,1.948-6.028,2.9a.513.513,0,0,1-.468-.089c-.333-.354-.61-.758-.93-1.125-.2-.231-.158-.408.006-.641.674-.96,1.331-1.932,1.991-2.9.077-.114.141-.237.281-.474l-2.6,1.066c-.4.163-.8.321-1.19.491a.417.417,0,0,1-.587-.147c-.278-.381-.586-.742-.9-1.093a.333.333,0,0,1-.008-.513c.949-1.2,1.884-2.416,2.825-3.626.4-.52.831-1.025,1.205-1.565.247-.356.4-.3.621.006a6.366,6.366,0,0,0,.567.7.447.447,0,0,1,.014.676c-.705.9-1.4,1.816-2.092,2.725-.084.11-.163.225-.244.337Z" transform="translate(-429.036 -87.966)"/><path class="a" d="M3900.5-567.012a2,2,0,0,1,2.372.579,1.877,1.877,0,0,1-.18,2.513c-1.085,1.331-2.2,2.639-3.3,3.956-.571.682-.428.681-1.134.094-1.551-1.292-3.093-2.595-4.64-3.891-.152-.128-.289-.229-.1-.447,1.239-1.445,2.456-2.91,3.714-4.338a1.6,1.6,0,0,1,1.9-.63,2,2,0,0,1,1.335,1.918A2.094,2.094,0,0,0,3900.5-567.012Zm-.072,1.386a1.856,1.856,0,0,0-.473.323c-.66.752-1.3,1.522-1.93,2.3a.391.391,0,0,0,0,.379,9.5,9.5,0,0,0,.941.811.327.327,0,0,0,.317-.011c.7-.815,1.4-1.628,2.042-2.482a.986.986,0,0,0,.052-.788A.848.848,0,0,0,3900.429-565.626Zm-3.581,2.042c.723-.88,1.431-1.7,2.082-2.57a.841.841,0,0,0-.012-.738.794.794,0,0,0-1.362-.1c-.6.695-1.171,1.41-1.771,2.1-.149.172-.155.29.011.428C3896.125-564.184,3896.455-563.91,3896.848-563.583Z" transform="translate(-68.785 -97.808)"/><path class="a" d="M4109.059-642.2q-.412,1.071-.824,2.143c-.25.655-.5,1.312-.743,1.968-.025.067-.027.16-.075.2-.427.351-.931.116-1.4.153-.118.009-.316-.174-.369-.31-.521-1.333-1.019-2.674-1.522-4.013-.023-.064-.048-.127-.072-.191h-.135c-.01.477-.023.954-.027,1.43,0,.516,0,1.032,0,1.548v1.554c-.428,0-.809.008-1.188,0-.3-.009-.265-.247-.266-.443q0-2.064,0-4.128c0-.731.01-1.462,0-2.193-.006-.309.1-.446.421-.43a6.733,6.733,0,0,0,1.2-.005c.472-.061.648.163.794.562.485,1.33,1,2.648,1.506,3.97.048.126.117.243.223.459.33-.861.621-1.617.909-2.374.28-.735.565-1.469.836-2.208a.513.513,0,0,1,.6-.406,11.517,11.517,0,0,0,1.332,0c.267-.01.4.064.4.355q-.01,3.246,0,6.493c0,.251-.082.364-.352.354-1.31-.044-1.082.227-1.1-1.066-.013-1.06,0-2.121.008-3.182a1.577,1.577,0,0,0-.024-.2Z" transform="translate(-259.799 -28.687)"/></g></svg>