<svg xmlns="http://www.w3.org/2000/svg" width="51.008" height="59.803" viewBox="0 0 51.008 59.803"><defs><style>.a,.b,.c,.d{fill:#fff;}.b{opacity:0.3;}.c{opacity:0.26;}.d{opacity:0.95;}</style></defs><g transform="translate(-232.341 -325.534)"><g transform="translate(233.892 374.871)"><g transform="translate(0 0)"><path class="a" d="M242.523,464.3l-4.721.483a2.271,2.271,0,0,0,2.484,2.05h3.025a.676.676,0,0,1,.717.7c0,.2,0,.605,0,.605h-3.771c-2.1,0-3.871-1.369-3.871-4.172a3.846,3.846,0,0,1,4.045-4.014,3.441,3.441,0,0,1,3.466,2.612C244.124,463.527,243.609,464.18,242.523,464.3Zm-.872-1.072a1.424,1.424,0,0,0,.8-.251.621.621,0,0,0,.032-.635,2.172,2.172,0,0,0-2.07-1.173,2.422,2.422,0,0,0-2.607,2.49Z" transform="translate(-236.385 -457.74)"/><path class="a" d="M286.316,459.97c.448,0,.77.208.77.656s-.322.658-.77.658h-3.288c-.69.052-.777.745-.721,1.172a.527.527,0,0,0,.18.338,2.162,2.162,0,0,0,.974.313l2.5.441a1.884,1.884,0,0,1,1.812,2.094c0,1.844-1.137,2.526-2.919,2.526H280.7s0-.458,0-.657c0-.449.305-.658.771-.658h3.287c1.283,0,1.614-.394,1.612-1.1,0-.641-.178-.875-1.034-1.02l-2.534-.417c-1.283-.208-1.84-.882-1.909-1.743-.1-1.262.421-2.605,2.15-2.605Z" transform="translate(-263.704 -457.746)"/><path class="a" d="M307.951,462.847c0-1.427-.385-2.887-2.5-2.887h-2.967c-.466,0-.771.209-.771.657s.3.659.771.659h2.758c.978,0,1.3.225,1.3.914v.209c-.058.421-.532.521-.77.576-1.982.466-4.651-.045-4.651,2.807,0,1.523,1.3,2.422,3.079,2.422.021,0,1.788.087,2.44-.805,0,0,0,.028,0,.077.044.449.258.686.718.686h.586Zm-1.41,2.373c0,1.395-.786,1.893-2.119,1.893-1.2,0-1.89-.433-1.89-1.4a1.425,1.425,0,0,1,1.335-1.307c.727-.129,1.833-.178,2.674-.371Z" transform="translate(-276.292 -457.74)"/><path class="a" d="M335.891,462.847c0-1.427-.386-2.887-2.5-2.887h-2.968c-.464,0-.769.209-.769.657s.3.659.769.659h2.76c.978,0,1.3.225,1.3.914v.209c-.058.421-.531.521-.77.576-1.983.466-4.65-.045-4.65,2.807,0,1.523,1.3,2.422,3.079,2.422.021,0,1.788.087,2.439-.805,0,0,0,.028.005.077a.65.65,0,0,0,.717.686h.587Zm-1.411,2.373c0,1.395-.786,1.893-2.118,1.893-1.2,0-1.892-.433-1.892-1.4a1.425,1.425,0,0,1,1.335-1.307c.726-.129,1.833-.178,2.675-.371Z" transform="translate(-293.516 -457.74)"/><path class="a" d="M323.942,454.171h-.79a.561.561,0,0,0-.621.621v7.616h0l0,2.183,1.415,0Z" transform="translate(-289.488 -454.171)"/><path class="a" d="M261.818,463.439c-1.074,0-1.474-.048-1.474-.832v-4.826h1.249c.448,0,.769-.208.769-.656s-.32-.657-.769-.657h-1.249v-2.176l-.6,0a2.823,2.823,0,0,0-.293.017.554.554,0,0,0-.515.616v1.544h-.384c-.447,0-.77.209-.77.657s.323.656.77.656h.384v4.09h0v1.04c0,1.73,1.2,1.752,2.884,1.752l.833,0s0-.381,0-.564C262.65,463.7,262.33,463.439,261.818,463.439Z" transform="translate(-249.574 -454.244)"/><path class="a" d="M352.881,463.439c-1.074,0-1.473-.048-1.473-.832v-4.826h1.248c.449,0,.769-.208.769-.656s-.32-.657-.769-.657h-1.248v-2.176l-.6,0a2.839,2.839,0,0,0-.294.017.554.554,0,0,0-.514.616v1.544h-.385c-.447,0-.769.209-.769.657s.323.656.769.656H350v4.09h0v1.04c0,1.73,1.2,1.752,2.883,1.752l.833,0s0-.381,0-.564C353.715,463.7,353.394,463.439,352.881,463.439Z" transform="translate(-305.712 -454.244)"/><path class="a" d="M275.062,468.169l0-8.193-.79,0a.555.555,0,0,0-.622.628c0,.11,0,7.569,0,7.569Z" transform="translate(-259.356 -457.747)"/><path class="a" d="M274.2,455.856c.343,0,.522.01.713-.167.15-.138.15-.385.15-.667,0-.164,0-.721,0-.721h-.793a.55.55,0,0,0-.619.624c0,.11,0,.93,0,.93Z" transform="translate(-259.352 -454.252)"/></g></g><g transform="translate(232.341 325.534)"><path class="b" d="M249.738,371.762a4.573,4.573,0,0,1-2.087-.415c-2.633-1.361-4.718-7.932-4.682-14.687.018-4.409,2.811-6.838,7-6.838a17.175,17.175,0,0,1,7.69,2.15c8.1,4.181,10.182,10.753,4.684,14.688-4.36,3.128-9.393,5.1-12.6,5.1m-1.026-28.719a10.213,10.213,0,0,0-3.221.463c-3.641,1.119-5.081,4.517-4.8,9.243a59,59,0,0,0,2.832,13.183c1.2,3.616,2.013,5.9,3.5,6.661a3.4,3.4,0,0,0,1.582.333,23.044,23.044,0,0,0,5.875-1.336,58.888,58.888,0,0,0,12.39-5.326c4.016-2.5,5.957-5.647,4.762-9.264-1.093-3.559-5.312-7.6-11.091-10.581a27.2,27.2,0,0,0-11.827-3.376m-14.68-4.075c-2.081,2.709-2.132,7.167-.75,12.689,1.941,7.782,5.3,15.643,6.858,20.894,1.8,5.369,1.811,8.125,2.509,8.484a.531.531,0,0,0,.248.051c.917,0,3.23-1.436,8.122-2.915,5.183-1.766,13.537-3.586,21.007-6.5,5.259-2.058,8.853-4.659,9.891-7.892-1.671,2.26-4.726,4.158-8.763,5.736-7.473,2.918-15.823,4.739-21.009,6.5-4.89,1.482-7.2,2.919-8.119,2.919a.546.546,0,0,1-.252-.054c-.7-.36-.709-3.109-2.511-8.485-1.563-5.246-4.913-13.11-6.857-20.892-1.06-4.242-1.277-7.857-.375-10.534" transform="translate(-232.341 -333.816)"/><path class="c" d="M245.649,325.534a13,13,0,0,0-4.149.591,6.816,6.816,0,0,0-4.75,4.561,6.951,6.951,0,0,1,3.622-2.4,12.966,12.966,0,0,1,4.163-.594c5.432,0,13.014,2.272,20.841,6.312,10.116,5.224,17.584,11.826,19.144,17.075a6.94,6.94,0,0,1,.116,4.416,6.823,6.823,0,0,0,1.01-6.571c-1.559-5.246-9.03-11.847-19.144-17.071-7.833-4.046-15.421-6.317-20.852-6.317" transform="translate(-235.059 -325.534)"/><path class="d" d="M250.413,368.111a3.4,3.4,0,0,1-1.582-.333c-1.485-.764-2.3-3.045-3.5-6.661a59,59,0,0,1-2.832-13.183c-.281-4.726,1.159-8.124,4.8-9.243a10.212,10.212,0,0,1,3.221-.463,27.2,27.2,0,0,1,11.827,3.376c5.779,2.982,10,7.022,11.091,10.581,1.194,3.616-.746,6.761-4.762,9.264a58.891,58.891,0,0,1-12.39,5.326,23.045,23.045,0,0,1-5.875,1.336m-6.787-36.953a12.966,12.966,0,0,0-4.163.594,6.95,6.95,0,0,0-3.622,2.4c-.9,2.677-.685,6.292.375,10.534,1.944,7.782,5.294,15.646,6.857,20.892,1.8,5.375,1.814,8.125,2.511,8.485a.546.546,0,0,0,.252.054c.92,0,3.229-1.437,8.119-2.919,5.186-1.764,13.536-3.585,21.009-6.5,4.036-1.579,7.092-3.476,8.763-5.736a6.94,6.94,0,0,0-.116-4.416c-1.56-5.248-9.028-11.851-19.144-17.075-7.827-4.041-15.409-6.312-20.841-6.312" transform="translate(-234.151 -329.001)"/></g></g></svg>