<svg xmlns="http://www.w3.org/2000/svg" width="13" height="26.001" viewBox="0 0 13 26.001"><path d="M995.51,4030l-3.118-.005c-3.5,0-5.767,2.511-5.767,6.4v2.95H983.49a.512.512,0,0,0-.49.531v4.275a.511.511,0,0,0,.49.53h3.135v10.786a.511.511,0,0,0,.49.53h4.09a.511.511,0,0,0,.49-.53v-10.786h3.666a.511.511,0,0,0,.491-.53v-4.275a.553.553,0,0,0-.144-.375.472.472,0,0,0-.347-.156H991.7v-2.5c0-1.2.265-1.812,1.713-1.812h2.1a.511.511,0,0,0,.49-.53v-3.969A.512.512,0,0,0,995.51,4030Z" transform="translate(-983 -4030)"/></svg>