<svg xmlns="http://www.w3.org/2000/svg" width="26" height="26" viewBox="0 0 26 26"><path d="M1047.175,4056a7.183,7.183,0,0,1-7.175-7.175v-11.649a7.183,7.183,0,0,1,7.175-7.175h11.649a7.183,7.183,0,0,1,7.175,7.175v11.649a7.183,7.183,0,0,1-7.175,7.175Zm-4.869-18.824v11.649a4.875,4.875,0,0,0,4.869,4.869h11.649a4.874,4.874,0,0,0,4.869-4.869v-11.649a4.874,4.874,0,0,0-4.869-4.869h-11.649A4.874,4.874,0,0,0,1042.306,4037.176ZM1046.3,4043a6.7,6.7,0,1,1,6.7,6.7A6.707,6.707,0,0,1,1046.3,4043Zm2.308,0a4.392,4.392,0,1,0,4.392-4.393A4.4,4.4,0,0,0,1048.607,4043Zm10.178-5.767a1.69,1.69,0,1,1,1.2.5A1.706,1.706,0,0,1,1058.786,4037.233Z" transform="translate(-1040 -4030)"/></svg>