<svg xmlns="http://www.w3.org/2000/svg" width="26" height="19" viewBox="0 0 26 19"><path d="M937.283,4034.351a11.47,11.47,0,0,1-3.389,1.165A5.61,5.61,0,0,0,930,4034a5.088,5.088,0,0,0-5.335,4.8,4.362,4.362,0,0,0,.138,1.093,15.763,15.763,0,0,1-10.994-5.013,4.4,4.4,0,0,0-.721,2.411,4.689,4.689,0,0,0,2.372,3.993,5.786,5.786,0,0,1-2.416-.6v.06a4.963,4.963,0,0,0,4.278,4.7,5.9,5.9,0,0,1-2.41.081,5.3,5.3,0,0,0,4.981,3.333,11.485,11.485,0,0,1-6.624,2.052,12.427,12.427,0,0,1-1.273-.066,16.356,16.356,0,0,0,8.177,2.155c9.811,0,15.176-7.311,15.176-13.651l-.017-.622a10.212,10.212,0,0,0,2.665-2.48,11.6,11.6,0,0,1-3.062.755A4.951,4.951,0,0,0,937.283,4034.351Z" transform="translate(-912 -4034)"/></svg>