<svg xmlns="http://www.w3.org/2000/svg" width="26" height="17" viewBox="0 0 26 17"><path d="M872.986,4036.459c-.939-1.036-2.671-1.459-5.981-1.459H854.993c-3.385,0-5.147.45-6.082,1.553-.911,1.076-.911,2.662-.911,4.855v4.182c0,4.25,1.082,6.409,6.994,6.409h12.012c2.87,0,4.46-.373,5.489-1.288,1.055-.938,1.505-2.469,1.505-5.121v-4.182C874,4039.095,873.929,4037.5,872.986,4036.459Zm-8.295,7.618-5.455,2.649a.9.9,0,0,1-.823-.024.77.77,0,0,1-.4-.667v-5.281a.768.768,0,0,1,.4-.666.894.894,0,0,1,.822-.025l5.455,2.631a.755.755,0,0,1,0,1.382Z" transform="translate(-848 -4035)"/></svg>