<svg xmlns="http://www.w3.org/2000/svg" width="50.322" height="50.322" viewBox="0 0 50.322 50.322"><defs><style>.a{fill:none;}</style></defs><path class="a" d="M0,0H50.322V50.322H0Z"/><path d="M41.935,34.451a4.188,4.188,0,0,0,4.172-4.193l.021-23.064A4.206,4.206,0,0,0,41.935,3H8.387A4.206,4.206,0,0,0,4.193,7.193V30.258a4.206,4.206,0,0,0,4.193,4.193H0a4.206,4.206,0,0,0,4.193,4.193H46.128a4.206,4.206,0,0,0,4.193-4.193ZM8.387,7.193H41.935V30.258H8.387ZM25.161,36.548a2.1,2.1,0,1,1,2.1-2.1A2.1,2.1,0,0,1,25.161,36.548Z" transform="translate(0 3.29)"/></svg>