<svg xmlns="http://www.w3.org/2000/svg" width="58.607" height="57.705" viewBox="0 0 58.607 57.705"><defs><style>.a{fill:#fff;fill-rule:evenodd;}</style></defs><path class="a" d="M332.026,4682.833a10.349,10.349,0,0,0-9.873,6.486,9.268,9.268,0,0,0,1.208,9.04,20.859,20.859,0,0,1,1.871,2.864,6.026,6.026,0,0,1-8.488,7.938,26.9,26.9,0,0,1-2.706-1.984,9.634,9.634,0,0,0-3.524-1.952,8.369,8.369,0,0,0-7.107,1.076c-.936.671-1.9,1.309-2.872,1.919a6.545,6.545,0,0,1-4.007,1.058,5.929,5.929,0,0,1-5.46-6.653,8.179,8.179,0,0,1,1.945-4.079,17.31,17.31,0,0,0,2.219-3.116,8.1,8.1,0,0,0,0-7.748,39.053,39.053,0,0,0-2.252-3.413,6.693,6.693,0,0,1-1.038-5.4,5.879,5.879,0,0,1,5-4.285,6.474,6.474,0,0,1,3.949.769,5.713,5.713,0,0,1,2.8,4.338,6.866,6.866,0,0,1-1.578,5.1c-.636.856-1.336,1.662-1.956,2.532a8.412,8.412,0,0,0-1.462,6.288,9.894,9.894,0,0,0,4.564,7.173,9.571,9.571,0,0,0,9.28.958,10.158,10.158,0,0,0,5.471-4.9,8.881,8.881,0,0,0-.323-9.115c-.524-.87-1.118-1.692-1.7-2.525a6.838,6.838,0,0,1-1.2-4.919,5.674,5.674,0,0,1,3.939-4.736,6.472,6.472,0,0,1,5.68.963c1.011.714,1.919,1.562,2.949,2.252a8.707,8.707,0,0,0,7.392,1.366,11.3,11.3,0,0,0,3.524-1.9,11.962,11.962,0,0,1,3.26-1.873,5.985,5.985,0,0,1,6.851,9.243c-.763,1.13-1.669,2.153-2.451,3.27a8.6,8.6,0,0,0-1.475,6.2,9.618,9.618,0,0,0,1.923,4.222,24.383,24.383,0,0,1,1.867,2.9,6.025,6.025,0,1,1-10.981,4.96,6.435,6.435,0,0,1-.358-2.99,7.9,7.9,0,0,1,2.162-4.48,14.84,14.84,0,0,0,2.2-3.235,8.331,8.331,0,0,0,.484-5.423,10.332,10.332,0,0,0-5.746-7.232,8.729,8.729,0,0,0-3.986-.94Zm-.813,38.868a6.094,6.094,0,0,1-4.329-1.658,5.759,5.759,0,0,1-1.792-4.936,7.137,7.137,0,0,1,1.6-3.667c.593-.8,1.231-1.572,1.8-2.392a11.369,11.369,0,0,0,1.575-3.561,7.206,7.206,0,0,0-.285-4.107,13.439,13.439,0,0,0-2.072-3.733,9.59,9.59,0,0,1-1.752-3.3,5.778,5.778,0,0,1,.421-4.163,5.941,5.941,0,0,1,8.6-2.284,5.83,5.83,0,0,1,2.718,5.373,6.134,6.134,0,0,1-.829,2.572,15.623,15.623,0,0,1-1.947,2.7,10.091,10.091,0,0,0-2.46,5.929,7.579,7.579,0,0,0,1.017,4.1c.6,1.142,1.459,2.114,2.14,3.2a7.519,7.519,0,0,1,1.352,3.707,5.876,5.876,0,0,1-1.493,4.174A5.624,5.624,0,0,1,331.214,4721.7Zm-26.88-54.4a5.941,5.941,0,0,1,8.6-2.284,5.831,5.831,0,0,1,2.719,5.373,6.137,6.137,0,0,1-.829,2.572,15.627,15.627,0,0,1-1.947,2.7,10.091,10.091,0,0,0-2.46,5.928,7.583,7.583,0,0,0,1.017,4.1c.6,1.142,1.459,2.115,2.14,3.2a7.519,7.519,0,0,1,1.352,3.708,5.872,5.872,0,0,1-1.493,4.173,5.624,5.624,0,0,1-4.268,2.045,6.092,6.092,0,0,1-4.329-1.658,5.762,5.762,0,0,1-1.792-4.937,7.134,7.134,0,0,1,1.6-3.666c.593-.8,1.231-1.573,1.8-2.392a11.38,11.38,0,0,0,1.575-3.561,7.206,7.206,0,0,0-.285-4.107,13.457,13.457,0,0,0-2.072-3.734,9.581,9.581,0,0,1-1.752-3.294,5.781,5.781,0,0,1,.421-4.164" transform="translate(-291.023 -4663.997)"/></svg>