<svg xmlns="http://www.w3.org/2000/svg" width="55.017" height="55.162" viewBox="0 0 55.017 55.162"><defs><style>.a{fill:#fff;}.b{fill:#fed9bf;}</style></defs><g transform="translate(0)"><path class="a" d="M54.97,55.116H0V0H54.971q0,13.779,0,27.558t0,27.558Zm-19.4-3.923-.957.154-.042.007-1,.161a2.164,2.164,0,0,0,1.1,1.448,4.21,4.21,0,0,0,2.091.475c.185,0,.38-.008.58-.024l.159-.014a3.5,3.5,0,0,0,2.293-.942,3.035,3.035,0,0,0,.706-2.1V42.749h-.982c-.285,0-.518,0-.731.008-.028.181-.062.365-.095.543-.019.1-.037.2-.055.3a1.605,1.605,0,0,0-.771-.717c-.039-.019-.08-.036-.12-.053a3.319,3.319,0,0,0-1.264-.225c-.091,0-.185,0-.28.008a2.828,2.828,0,0,0-2.035,1.174,4.8,4.8,0,0,0-.814,2.927,4.465,4.465,0,0,0,.627,2.4c.056.087.117.172.18.252a2.847,2.847,0,0,0,1.956,1.057c.159.015.3.023.443.023a2.355,2.355,0,0,0,1.191-.274,2.328,2.328,0,0,0,.786-.841c.007.138.009.269.009.424,0,.067,0,.135,0,.2s0,.148,0,.222q0,.061,0,.121a1.912,1.912,0,0,1-.372,1.227,1.466,1.466,0,0,1-1.081.408h-.153a1.928,1.928,0,0,1-1.055-.24.715.715,0,0,1-.271-.357A1.421,1.421,0,0,1,35.572,51.193ZM6.77,42.572c-.081,0-.163,0-.245.007a3.6,3.6,0,0,0-2.784,1.41,4.306,4.306,0,0,0-.762,2.545v.043a4.486,4.486,0,0,0,.613,2.471,3.272,3.272,0,0,0,.471.594,3.386,3.386,0,0,0,.755.568l.012.007a3.378,3.378,0,0,0,.353.168,4.157,4.157,0,0,0,1.576.3c.148,0,.3-.008.45-.023a4.587,4.587,0,0,0,.47-.072,3.478,3.478,0,0,0,2-1.172,3.9,3.9,0,0,0,.819-1.913,5.639,5.639,0,0,0-.152-2.418,3.467,3.467,0,0,0-1.3-1.835A3.886,3.886,0,0,0,6.77,42.572ZM45.3,42.6a5.25,5.25,0,0,0-.612.037,3.21,3.21,0,0,0-2.1,1.094,4.128,4.128,0,0,0-.866,2.38,5.231,5.231,0,0,0,.451,2.737,3.109,3.109,0,0,0,.352.549,2.994,2.994,0,0,0,1.223.916,3.963,3.963,0,0,0,1.01.254,4.77,4.77,0,0,0,.566.033,5.811,5.811,0,0,0,1.2-.131,3.328,3.328,0,0,0,2.19-1.543c-.548-.3-1.034-.572-1.486-.825a2.352,2.352,0,0,1-.842.793,1.927,1.927,0,0,1-.882.194,2.833,2.833,0,0,1-.4-.03c-.036-.005-.072-.012-.108-.019a1.579,1.579,0,0,1-.309-.1,1.416,1.416,0,0,1-.622-.529,2.635,2.635,0,0,1-.359-1.347v-.006c0-.048,0-.095,0-.141h5.087a5.49,5.49,0,0,0-.2-2.017,3.421,3.421,0,0,0-.516-1.04,2.841,2.841,0,0,0-.76-.719,3.412,3.412,0,0,0-1.442-.5h-.015A4.534,4.534,0,0,0,45.4,42.6ZM20.4,44.02a1.265,1.265,0,0,1,1.007.36.61.61,0,0,1,.079.115,1.272,1.272,0,0,1,.09.627c0,.065,0,.131,0,.194a11.134,11.134,0,0,0-3.083.712,2.986,2.986,0,0,0-1.415,1.1,2.231,2.231,0,0,0-.321,1.19,2.666,2.666,0,0,0,.123.788,2,2,0,0,0,1.07,1.219,2.585,2.585,0,0,0,1.116.223,4.8,4.8,0,0,0,.758-.066,4.568,4.568,0,0,0,1.741-.691l.064.243c.038.144.074.283.112.422h1.8c-.015-1.214-.013-2.449-.012-3.643q0-.677,0-1.354V45.13a2.189,2.189,0,0,0-.391-1.5,2.759,2.759,0,0,0-1.752-.938l-.064-.011c-.082-.012-.165-.022-.248-.031-.21-.023-.418-.035-.619-.037H20.3a5.111,5.111,0,0,0-1.06.125c-.064.015-.128.031-.191.048s-.112.032-.166.049a3.392,3.392,0,0,0-1.743,1.281l.4.23q.388.223.777.443l.2.112a2.3,2.3,0,0,1,1.591-.868C20.212,44.024,20.307,44.02,20.4,44.02Zm-7.5-1.249-.756,0h-.212V43.4q0,1.128,0,2.254,0,1.006,0,2.013v2.79h2.059c0-.7,0-1.419,0-2.112,0-.981,0-1.995,0-2.991a1.061,1.061,0,0,1,.541-.55,3.946,3.946,0,0,1,1.689-.275q0-.5,0-1,0-.454,0-.908A2.081,2.081,0,0,0,16,42.618a2.912,2.912,0,0,0-2.076.956q-.041.044-.081.09,0-.223,0-.446t0-.446h-.953ZM29,44.1a.9.9,0,0,1,.688.247,1.535,1.535,0,0,1,.274.972q0,2.566,0,5.134H31.99v-5.5a3.268,3.268,0,0,0-.183-1.042,1.832,1.832,0,0,0-.952-1.066,2.9,2.9,0,0,0-1.21-.245,3.946,3.946,0,0,0-.731.071,5.209,5.209,0,0,0-1.937.978c-.022-.112-.046-.226-.069-.336-.039-.186-.078-.377-.112-.566-.53.072-1.064.147-1.581.219l-.1.014q0,2.49,0,4.979v2.489h2.013v-5.5a3.312,3.312,0,0,1,1.647-.835A2.088,2.088,0,0,1,29,44.1Zm23.62-1.687.276,0c0-.5,0-1.006,0-1.5V40.9q0-.519,0-1.038h-.653c-.188.493-.381.991-.567,1.473l-.168.434c-.121-.311-.243-.621-.36-.921l-.054-.137q-.167-.425-.332-.849h-.657q0,.636,0,1.272t0,1.272h.429q0-.2,0-.391t0-.4v-.385c0-.25,0-.58,0-.912.186.446.363.9.535,1.347l.071.183q.107.277.216.553h.278c.11-.275.218-.554.323-.824.162-.415.329-.845.5-1.265h0c0,.462,0,.933,0,1.388,0,.237,0,.47,0,.7Zm-4.632-2.193h.395q0,.553,0,1.108v1.087h.431v-.731q0-.731,0-1.463h.791v-.034c0-.106,0-.211,0-.316H47.6c0,.08,0,.207,0,.352h.395Z" transform="translate(0 0)"/><path class="a" d="M301.631,303.3a1.414,1.414,0,0,1,.975-.449,1.557,1.557,0,0,1,1.29.457,1.775,1.775,0,0,1,.385,1.155c-1.03,0-2.06,0-3.09,0A1.954,1.954,0,0,1,301.631,303.3Zm0,0" transform="translate(-257.454 -258.872)"/><path class="a" d="M244.864,303.346a1.488,1.488,0,0,1,1.326.416,2.373,2.373,0,0,1,.589,1.531,6.139,6.139,0,0,1-.065,1.212,2.157,2.157,0,0,1-.518,1.164,1.449,1.449,0,0,1-1.068.4,1.291,1.291,0,0,1-.994-.377,2.2,2.2,0,0,1-.5-1.31,6.4,6.4,0,0,1,.005-1.429,2.251,2.251,0,0,1,.466-1.164A1.313,1.313,0,0,1,244.864,303.346Zm0,0" transform="translate(-208.22 -259.276)"/><path class="a" d="M35.82,305.022a1.77,1.77,0,0,1,1.425.345,2.067,2.067,0,0,1,.616,1.241,4.461,4.461,0,0,1-.02,1.562,1.953,1.953,0,0,1-.667,1.19,1.857,1.857,0,0,1-1.475.264,1.483,1.483,0,0,1-.976-.707,3.31,3.31,0,0,1-.353-1.73,2.9,2.9,0,0,1,.415-1.532A1.488,1.488,0,0,1,35.82,305.022Zm0,0" transform="translate(-29.378 -260.707)"/><path class="a" d="M130.065,320.972a7,7,0,0,1,1.806-.421c0,.6,0,1.2,0,1.8a2.809,2.809,0,0,1-1.872.809.847.847,0,0,1-.632-.267,1.12,1.12,0,0,1-.114-1.287A1.656,1.656,0,0,1,130.065,320.972Zm0,0" transform="translate(-110.356 -274.003)"/><path class="b" d="M54.971,0h.046V55.162H0v-.046H54.97Q54.972,27.558,54.971,0Zm0,0" transform="translate(0)"/></g></svg>