<svg xmlns="http://www.w3.org/2000/svg" width="79.632" height="56.86" viewBox="0 0 79.632 56.86"><defs><style>.a{fill:#fff;}</style></defs><g transform="translate(0 0)"><path class="a" d="M2651.835-432.754a17.367,17.367,0,0,1,6.288,1.585c-.231.01-.456-.031-.685-.035a16.8,16.8,0,0,0-7.473,1.707,16.727,16.727,0,0,0-4.988,3.462,15.454,15.454,0,0,0-4.236,8,11.929,11.929,0,0,0,.969,7.78,10.129,10.129,0,0,0,7,5.609,9.63,9.63,0,0,0,10.485-4.508,9.692,9.692,0,0,0,1.387-5.6,8.8,8.8,0,0,0-1.845-5.168,9.419,9.419,0,0,0-3.514-2.647,15.38,15.38,0,0,0-2.436-.858c-.329-.089-.289-.019-.292-.387a6.854,6.854,0,0,1,1.007-3.637,7.527,7.527,0,0,1,4.634-3.533.8.8,0,0,1,.613.082,18.217,18.217,0,0,1,7.9,7.647,17.826,17.826,0,0,1,2.052,6.418,18.227,18.227,0,0,1-13.41,19.878,18.209,18.209,0,0,1-5.466.584,18.224,18.224,0,0,1-15.741-10.525,17.492,17.492,0,0,1-1.584-5.734,17.878,17.878,0,0,1,4.52-14.074,17.719,17.719,0,0,1,9.7-5.68,15.32,15.32,0,0,1,2.868-.38.443.443,0,0,0,.268-.044h1.3C2651.373-432.725,2651.61-432.818,2651.835-432.754Z" transform="translate(-2610.165 432.807)"/><path class="a" d="M3240.518-432.754a1.437,1.437,0,0,1-.685-.053h.679A.162.162,0,0,0,3240.518-432.754Z" transform="translate(-3198.848 432.807)"/><path class="a" d="M3856.616,1067.108a4.746,4.746,0,0,1,1.885-.919,4.461,4.461,0,0,1,2.257.045,2.936,2.936,0,0,1,2,1.859,5.731,5.731,0,0,1,.375,2.113c.007,1.976,0,3.951,0,5.927,0,.258,0,.261-.244.262q-1.049,0-2.1,0c-.245,0-.248,0-.248-.259q0-2.717,0-5.433a3.582,3.582,0,0,0-.2-1.333,1.607,1.607,0,0,0-1.262-1.1,2.05,2.05,0,0,0-1.4.241,6.078,6.078,0,0,0-.777.555.516.516,0,0,0-.194.453c.007,2.068,0,4.136,0,6.2,0,.165-.005.33,0,.494.005.128-.035.183-.174.182-.751-.005-1.5,0-2.253,0-.115,0-.175-.036-.166-.158,0-.061,0-.123,0-.185v-9.384c0-.062,0-.124,0-.185-.009-.118.04-.167.159-.167q1.035,0,2.068,0c.12,0,.154.061.167.17C3856.541,1066.677,3856.577,1066.866,3856.616,1067.108Z" transform="translate(-3794.173 -1019.792)"/><path class="a" d="M3281.4,942.728a3.343,3.343,0,0,0-1.377-.274,1.565,1.565,0,0,0-.574.094,1.084,1.084,0,0,0-.725.95c-.025.213-.009.431-.021.647-.007.138.055.175.183.174.514,0,1.028,0,1.542,0a2.306,2.306,0,0,0,.247,0c.168-.018.205.061.2.215-.007.555-.009,1.111,0,1.666,0,.162-.049.213-.209.211-.555-.007-1.111,0-1.666,0-.337,0-.28.028-.28.291q0,3.625,0,7.25c0,.072,0,.144,0,.216,0,.229,0,.232-.241.233q-1.048,0-2.1,0c-.249,0-.252,0-.253-.254q0-2.7,0-5.4c0-.7,0-1.4,0-2.1,0-.234,0-.236-.237-.238-.3,0-.6-.005-.894,0-.136,0-.208-.025-.206-.184.007-.576.005-1.152,0-1.728,0-.132.045-.182.179-.18.308.007.617,0,.926,0,.228,0,.234,0,.231-.243a6.366,6.366,0,0,1,.115-1.471,2.8,2.8,0,0,1,1.847-2.208,4.348,4.348,0,0,1,1.548-.213,5.625,5.625,0,0,1,1.871.331c.215.079.214.077.185.3-.073.56-.144,1.12-.219,1.679A.459.459,0,0,1,3281.4,942.728Z" transform="translate(-3232.728 -897.793)"/><path class="a" d="M1917.669,1080.7l1.939-5.083c.172-.451.344-.9.511-1.354a.247.247,0,0,1,.265-.2c.761.008,1.522,0,2.283.005a.871.871,0,0,1,.13.022,4.541,4.541,0,0,1-.253.668q-1.848,4.553-3.7,9.1c-.144.353-.093.279-.415.282-.565,0-1.131-.007-1.7.006a.323.323,0,0,1-.359-.241c-.642-1.557-1.3-3.108-1.949-4.661l-2.036-4.858c-.039-.093-.076-.186-.113-.276.084-.069.169-.044.247-.044q1.111,0,2.221,0c.264,0,.264,0,.367.262q1.2,3.052,2.406,6.1A.47.47,0,0,0,1917.669,1080.7Z" transform="translate(-1912.274 -1027.549)"/><path class="a" d="M2626.174,962.776c0-.072,0-.144,0-.216v-13.3c0-.271.016-.259-.242-.259h-2.1c-.238,0-.237-.016-.237.233q0,1.667,0,3.333a.691.691,0,0,1-.022.3c-.012,0-.024.013-.032.011-.109-.025-.219-.048-.327-.077a5.042,5.042,0,0,0-2.5-.06,4.4,4.4,0,0,0-3.2,2.887,6.534,6.534,0,0,0-.288,3.521,5.619,5.619,0,0,0,.777,2.1,3.9,3.9,0,0,0,2.608,1.858.943.943,0,0,1,.352.1h.8c.053-.061.133-.052.2-.066a3.3,3.3,0,0,0,1.661-.89c.01-.01.037,0,.067,0a3.233,3.233,0,0,1,.089.538c.024.1.044.167.168.166q1.033-.006,2.068,0C2626.135,962.943,2626.179,962.89,2626.174,962.776Zm-2.78-2.453a2.037,2.037,0,0,1-3.164-.255,3.3,3.3,0,0,1-.535-1.46,4.252,4.252,0,0,1,.161-2.126,2.378,2.378,0,0,1,1.555-1.589,3.212,3.212,0,0,1,2.052.137c.151.055.132.161.132.271q0,1.156,0,2.312c0,.74-.006,1.48,0,2.22A.62.62,0,0,1,2623.394,960.323Z" transform="translate(-2595.346 -906.339)"/><path class="a" d="M4205.191,1070.2a5.322,5.322,0,0,0-.567-2.1,3.713,3.713,0,0,0-1.952-1.884,4.7,4.7,0,0,0-2.541-.3,4.3,4.3,0,0,0-3.484,2.662,6.5,6.5,0,0,0-.247,4.466,4.339,4.339,0,0,0,3.465,3.26,4.017,4.017,0,0,1,.687.147h1.111a3.535,3.535,0,0,1,.637-.06,5.807,5.807,0,0,0,2.283-.7c.3-.165.353-.306.261-.61-.152-.5-.317-1-.5-1.492-.1-.285-.205-.319-.463-.16a4.578,4.578,0,0,1-1.011.454,4.177,4.177,0,0,1-2.4.122,2.03,2.03,0,0,1-1.6-1.755c-.044-.276,0-.328.281-.34.083,0,.165,0,.247,0q2.684,0,5.367,0a.663.663,0,0,0,.474-.087v-1.358C4205.176,1070.384,4205.195,1070.286,4205.191,1070.2Zm-2.848-.254h-1.634c-.565,0-1.13,0-1.7,0-.132,0-.21-.012-.2-.182a2.094,2.094,0,0,1,1.871-1.831,1.8,1.8,0,0,1,1.775,1.18,2.427,2.427,0,0,1,.141.5C4202.656,1069.942,4202.661,1069.942,4202.343,1069.943Z" transform="translate(-4125.611 -1019.591)"/><path class="a" d="M3497.69,1069.917a5.04,5.04,0,0,0-1.212-2.425,4.6,4.6,0,0,0-4.266-1.408,4.24,4.24,0,0,0-3.4,2.5,5.982,5.982,0,0,0,.174,5.712,4.286,4.286,0,0,0,2.87,2.159,4.988,4.988,0,0,1,.687.151h.988a1.042,1.042,0,0,1,.41-.106,4.279,4.279,0,0,0,2.983-2A5.98,5.98,0,0,0,3497.69,1069.917Zm-2.626,2.824a2.924,2.924,0,0,1-.4.762,2.049,2.049,0,0,1-3.425-.166,4.1,4.1,0,0,1-.5-2.142,3.843,3.843,0,0,1,.373-1.753,2.045,2.045,0,0,1,1.292-1.159,2.007,2.007,0,0,1,2.29.781,3.088,3.088,0,0,1,.528,1.334A4.709,4.709,0,0,1,3495.064,1072.741Z" transform="translate(-3439.516 -1019.749)"/><path class="a" d="M2270.917,1068.563a4.256,4.256,0,0,0-2.942-2.25,5.4,5.4,0,0,0-1.625-.1,4.3,4.3,0,0,0-3.258,1.754,6.066,6.066,0,0,0-.042,6.915,4.362,4.362,0,0,0,2.606,1.743,3.188,3.188,0,0,1,.653.151h.988a1.387,1.387,0,0,1,.444-.107,4.175,4.175,0,0,0,2.961-1.973A5.924,5.924,0,0,0,2270.917,1068.563Zm-2.078,4.425a2.828,2.828,0,0,1-.52.867,2.048,2.048,0,0,1-3.185-.214,3.437,3.437,0,0,1-.516-1.309,4.739,4.739,0,0,1,.14-2.343,2.819,2.819,0,0,1,.285-.613,2.059,2.059,0,0,1,3.585.054,3.957,3.957,0,0,1,.471,2.016A4.283,4.283,0,0,1,2268.839,1072.989Z" transform="translate(-2251.193 -1019.918)"/><path class="a" d="M2970.136,1076c0-.03,0-.062,0-.092q0-3.132,0-6.263a4.89,4.89,0,0,0-.077-.951,3.118,3.118,0,0,0-2.328-2.638,5.8,5.8,0,0,0-3.105.06,5.906,5.906,0,0,0-1.866.856c-.183.129-.182.132-.084.343q.215.461.434.92c.1.219.21.437.313.651a.728.728,0,0,0,.287-.167,3.869,3.869,0,0,1,2.365-.75,1.348,1.348,0,0,1,1.479,1.45c.011.236.011.244-.216.266a16.386,16.386,0,0,0-2.2.292,5.467,5.467,0,0,0-2.16.931,2.719,2.719,0,0,0-1.015,1.47,3.142,3.142,0,0,0,2.375,3.958,2.884,2.884,0,0,1,.471.128h.8a.269.269,0,0,1,.077-.043,3.6,3.6,0,0,0,1.949-.913s.019,0,.046,0a3.8,3.8,0,0,1,.071.468c.006.175.079.225.247.222.473-.009.946,0,1.419,0,.174,0,.35-.008.524,0C2970.1,1076.207,2970.152,1076.141,2970.136,1076Zm-2.556-2.662a.3.3,0,0,1-.1.275,2.569,2.569,0,0,1-2.178.6,1.029,1.029,0,0,1-.91-.843,1.3,1.3,0,0,1,.541-1.323,2.29,2.29,0,0,1,.969-.368,10.318,10.318,0,0,1,1.654-.2,2.946,2.946,0,0,1,.019.561C2967.582,1072.475,2967.579,1072.906,2967.581,1073.337Z" transform="translate(-2929.444 -1019.602)"/></g></svg>